<svg xmlns="http://www.w3.org/2000/svg" width="128" height="128" viewBox="0 0 128 128">
  <defs>
    <linearGradient id="body" x1="0" y1="0" x2="1" y2="1">
      <stop offset="0" stop-color="#4B2E1E"/>
      <stop offset="1" stop-color="#2A1A12"/>
    </linearGradient>
    <linearGradient id="metal" x1="0" y1="0" x2="1" y2="1">
      <stop offset="0" stop-color="#C7C7C7"/>
      <stop offset="1" stop-color="#8E8E8E"/>
    </linearGradient>
    <linearGradient id="accent" x1="0" y1="0" x2="1" y2="1">
      <stop offset="0" stop-color="#F59E0B"/>
      <stop offset="1" stop-color="#FCD34D"/>
    </linearGradient>
  </defs>

  <rect x="10" y="12" width="108" height="104" rx="18" fill="url(#body)"/>
  <rect x="18" y="20" width="92" height="40" rx="10" fill="url(#metal)"/>

  <rect x="28" y="30" width="10" height="20" rx="2" fill="#2A1A12"/>
  <rect x="44" y="30" width="10" height="20" rx="2" fill="#2A1A12"/>
  <rect x="60" y="30" width="10" height="20" rx="2" fill="#2A1A12"/>
  <rect x="76" y="30" width="10" height="20" rx="2" fill="#2A1A12"/>
  <rect x="92" y="30" width="10" height="20" rx="2" fill="#2A1A12"/>

  <rect x="24" y="70" width="80" height="30" rx="8" fill="#1F2937"/>
  <circle cx="40" cy="85" r="6" fill="url(#accent)"/>
  <circle cx="64" cy="85" r="6" fill="url(#accent)"/>
  <circle cx="88" cy="85" r="6" fill="url(#accent)"/>

  <path d="M108 64 c10 0 10 16 0 16" fill="none" stroke="#FCD34D" stroke-width="5" stroke-linecap="round"/>
  <path d="M112 60 c12 0 12 24 0 24" fill="none" stroke="#FDE68A" stroke-width="4" stroke-linecap="round" opacity="0.8"/>
</svg>
